<svg width="24" height="24" viewBox="0 0 24 24" fill="none" xmlns="http://www.w3.org/2000/svg">
<path d="M17.25 19.2857V10.7143H6.75V19.2857H17.25ZM17.25 9C17.7141 9 18.1592 9.18061 18.4874 9.5021C18.8156 9.82359 19 10.2596 19 10.7143V19.2857C19 19.7404 18.8156 20.1764 18.4874 20.4979C18.1592 20.8194 17.7141 21 17.25 21H6.75C5.77875 21 5 20.2286 5 19.2857V10.7143C5 9.76286 5.77875 9 6.75 9H7.625V7.28571C7.625 6.14907 8.08594 5.05898 8.90641 4.25526C9.72688 3.45153 10.8397 3 12 3C12.5745 3 13.1434 3.11085 13.6742 3.32623C14.205 3.54161 14.6873 3.85729 15.0936 4.25526C15.4998 4.65322 15.8221 5.12568 16.042 5.64564C16.2618 6.16561 16.375 6.72291 16.375 7.28571V9H17.25ZM12 4.71429C11.3038 4.71429 10.6361 4.9852 10.1438 5.46744C9.65156 5.94968 9.375 6.60373 9.375 7.28571V9H14.625V7.28571C14.625 6.60373 14.3484 5.94968 13.8562 5.46744C13.3639 4.9852 12.6962 4.71429 12 4.71429Z" fill="black"/>
</svg>
